<svg xmlns="http://www.w3.org/2000/svg" viewBox="0 0 300 300" overflow="hidden" preserveAspectRatio="xMidYMid meet" id="eaf-9b47-0"><defs><clipPath id="eaf-9b47-1"><rect x="0" y="0" width="300" height="300"></rect></clipPath><radialGradient gradientUnits="userSpaceOnUse" gradientTransform="matrix(1 0 0 0.5632 0 0.341)" cx="-1.2809" cy="0.7807" r="46.941" fx="0.9788" fy="2.7572" fr="31.6234" id="eaf-9b47-2"><stop stop-color="#fff" offset="0.3"></stop><stop stop-color="#000" offset="1"></stop></radialGradient></defs><g clip-path="url('#eaf-9b47-1')" style="isolation: isolate;"><g><path fill="none" stroke="#000" stroke-width="4" stroke-linecap="round" stroke-linejoin="round" stroke-dasharray="500" pathLength="500" d="m0 0q142.5151 48.3792 283.5325 4.4418" transform="translate(8.8862 138.6455)"></path><path fill="none" stroke="#000" stroke-width="4" stroke-linecap="round" stroke-linejoin="round" stroke-dasharray="500" pathLength="500" d="m69.2175 0c0 19.8294 -30.9897 35.9043 -69.2175 35.9043c-38.2278 0 -69.2175 -16.0749 -69.2175 -35.9043c0 -19.8294 30.9897 -35.9043 69.2175 -35.9043c38.2278 0 69.2175 16.0749 69.2175 35.9043z" transform="translate(155.4643 128.2814)"></path><ellipse fill="url('#eaf-9b47-2')" stroke="#000" stroke-width="4" stroke-linecap="round" stroke-linejoin="round" stroke-dasharray="500" pathLength="500" rx="50.34" ry="24.4297" transform="matrix(0.9853 0 0 1 155.4643 131.2425)"></ellipse><path fill="none" stroke="#000" stroke-width="4" stroke-linecap="round" stroke-linejoin="round" stroke-dasharray="500" pathLength="500" d="m0 0q-18.4532 3.9287 -28.1312 19.2477q-9.186 12.7603 -22.949 2.2209q-19.778 -26.7557 -34.0537 -19.9879" transform="translate(197.661 125.3201)"></path><path d="M60.7206 24L60.7206 5.625L71.3163 5.625L71.3163 7.60059L63.0653 7.60059L63.0653 13.3633L70.0243 13.3633L70.0243 15.3389L63.0653 15.3389L63.0653 22.0176L71.5966 22.0176L71.5966 24L60.7206 24ZM75.2647 29.7422L75.2647 10.3896L77.1651 10.3896L77.3634 11.9619L77.4386 11.9619Q78.3614 11.1826 79.4757 10.6221Q80.5968 10.0547 81.7794 10.0547Q83.5362 10.0547 84.7325 10.9092Q85.9356 11.7637 86.5509 13.3291Q87.1729 14.8877 87.1729 16.9863Q87.1729 19.3105 86.339 20.9512Q85.5118 22.5918 84.172 23.4668Q82.8321 24.335 81.2804 24.335Q80.3575 24.335 79.4005 23.918Q78.4434 23.501 77.5069 22.7559L77.5684 25.1348L77.5684 29.7422L75.2647 29.7422ZM80.8839 22.4004Q82.005 22.4004 82.8868 21.7578Q83.7755 21.1084 84.2813 19.8984Q84.794 18.6885 84.794 17.0068Q84.794 15.5098 84.4249 14.3818Q84.0626 13.2471 83.2696 12.6182Q82.4835 11.9893 81.2052 11.9893Q80.3575 11.9893 79.462 12.4541Q78.5733 12.9189 77.5684 13.8486L77.5684 20.9854Q78.4981 21.751 79.3595 22.0791Q80.2208 22.4004 80.8839 22.4004ZM90.798 24L90.798 10.3896L93.1017 10.3896L93.1017 24L90.798 24ZM91.9532 7.59375Q91.2902 7.59375 90.8527 7.17676Q90.4152 6.75293 90.4152 6.06934Q90.4152 5.39941 90.8527 4.98926Q91.2902 4.5791 91.9532 4.5791Q92.6368 4.5791 93.0607 4.98926Q93.4913 5.39941 93.4913 6.06934Q93.4913 6.75293 93.0607 7.17676Q92.6368 7.59375 91.9532 7.59375ZM102.293 30.2617Q100.625 30.2617 99.354 29.8311Q98.0825 29.4072 97.3715 28.5938Q96.6606 27.7871 96.6606 26.6113Q96.6606 25.7295 97.187 24.9365Q97.7202 24.1504 98.6567 23.5352L98.6567 23.4258Q98.144 23.084 97.7885 22.5371Q97.4399 21.9902 97.4399 21.1973Q97.4399 20.3428 97.9253 19.6865Q98.4106 19.0303 98.937 18.668L98.937 18.5586Q98.2671 18.0186 97.7202 17.0615Q97.1733 16.1045 97.1733 14.9014Q97.1733 13.4111 97.8774 12.3242Q98.5815 11.2305 99.7368 10.6426Q100.899 10.0547 102.28 10.0547Q102.854 10.0547 103.346 10.1504Q103.838 10.2393 104.201 10.3896L108.952 10.3896L108.952 12.1602L106.115 12.1602L106.115 12.2764Q106.614 12.7139 106.935 13.3906Q107.263 14.0605 107.263 14.9834Q107.263 16.4326 106.593 17.4854Q105.93 18.5381 104.802 19.1123Q103.674 19.6797 102.28 19.6797Q101.788 19.6797 101.254 19.5635Q100.728 19.4404 100.249 19.2217Q99.9008 19.5225 99.6411 19.8916Q99.3881 20.2539 99.3881 20.8281Q99.3881 21.4707 99.9008 21.8877Q100.414 22.3047 101.767 22.3047L104.419 22.3047Q106.805 22.3047 107.988 23.084Q109.177 23.8564 109.177 25.5586Q109.177 26.8232 108.33 27.8896Q107.489 28.9561 105.944 29.6055Q104.399 30.2617 102.293 30.2617ZM102.28 18.1348Q103.066 18.1348 103.715 17.7383Q104.372 17.3418 104.768 16.6172Q105.171 15.8926 105.171 14.9014Q105.171 13.3906 104.324 12.5566Q103.483 11.7227 102.28 11.7227Q101.077 11.7227 100.229 12.5566Q99.3881 13.3906 99.3881 14.9014Q99.3881 15.8926 99.7846 16.6172Q100.188 17.3418 100.837 17.7383Q101.494 18.1348 102.28 18.1348ZM102.615 28.6758Q103.914 28.6758 104.871 28.2793Q105.834 27.8896 106.374 27.2471Q106.921 26.6113 106.921 25.9004Q106.921 24.9502 106.217 24.5811Q105.513 24.2119 104.173 24.2119L101.829 24.2119Q101.446 24.2119 100.981 24.1572Q100.523 24.1094 100.058 24.0068Q99.3266 24.5264 98.9985 25.1143Q98.6704 25.7021 98.6704 26.29Q98.6704 27.3838 99.7231 28.0264Q100.776 28.6758 102.615 28.6758ZM112.037 29.8652Q111.566 29.8652 111.169 29.7764Q110.773 29.6943 110.438 29.5645L110.923 27.7734Q111.19 27.8555 111.443 27.9033Q111.696 27.9512 111.928 27.9512Q113.083 27.9512 113.835 27.1172Q114.587 26.2832 114.997 25.0322L115.305 24.0273L109.843 10.3896L112.215 10.3896L114.997 17.9229Q115.319 18.8047 115.66 19.8027Q116.002 20.8008 116.323 21.7578L116.433 21.7578Q116.727 20.8213 117.014 19.8232Q117.308 18.8252 117.574 17.9229L120.001 10.3896L122.257 10.3896L117.13 25.1211Q116.652 26.4678 115.982 27.541Q115.319 28.6211 114.355 29.2432Q113.398 29.8652 112.037 29.8652ZM124.881 24L124.881 10.3896L126.781 10.3896L126.98 12.3516L127.055 12.3516Q128.039 11.3809 129.133 10.7178Q130.227 10.0547 131.621 10.0547Q133.781 10.0547 134.779 11.415Q135.777 12.7686 135.777 15.373L135.777 24L133.474 24L133.474 15.6738Q133.474 13.7666 132.872 12.9121Q132.271 12.0508 130.903 12.0508Q129.858 12.0508 129.037 12.584Q128.224 13.1104 127.185 14.1426L127.185 24L124.881 24ZM145.72 24.335Q143.888 24.335 142.398 23.4873Q140.908 22.6396 140.04 21.0469Q139.172 19.4541 139.172 17.1982Q139.172 14.9834 140.053 13.3838Q140.942 11.7842 142.344 10.9229Q143.745 10.0547 145.317 10.0547Q147.06 10.0547 148.27 10.8477Q149.487 11.6406 150.109 13.0762Q150.738 14.5049 150.738 16.4395Q150.738 16.7881 150.711 17.1367Q150.683 17.4785 150.608 17.8135L140.819 17.8135L140.819 16.002L148.66 16.002Q148.66 14.0195 147.799 12.9736Q146.944 11.9209 145.351 11.9209Q144.415 11.9209 143.526 12.4473Q142.637 12.9668 142.056 14.1221Q141.475 15.2773 141.475 17.1777Q141.475 18.9072 142.084 20.083Q142.692 21.2588 143.724 21.8604Q144.757 22.4551 145.987 22.4551Q146.978 22.4551 147.826 22.1816Q148.674 21.9082 149.371 21.4365L150.212 22.9473Q149.337 23.5488 148.222 23.9453Q147.115 24.335 145.72 24.335Z" fill="#000" stroke="#000" stroke-linecap="round" stroke-linejoin="round" transform="translate(46.7831 242.4199)"></path></g></g></svg>