<svg xmlns="http://www.w3.org/2000/svg" viewBox="0 0 800 300" overflow="hidden" preserveAspectRatio="xMidYMid meet" id="eaf-11a51-0"><defs><clipPath id="eaf-11a51-1"><rect x="0" y="0" width="800" height="300"></rect></clipPath><style>#eaf-11a51-0 * {animation: 10000ms linear  normal both running;offset-rotate:0deg}@keyframes eaf-11a51-2{0%{stroke-dashoffset:500}30.17%,100%{stroke-dashoffset:0}}</style></defs><g clip-path="url('#eaf-11a51-1')" style="isolation: isolate;"><g><g style="filter: drop-shadow(rgb(0, 0, 0) -1px 1px 0px);"><path fill="none" stroke="#000" stroke-width="2" stroke-linecap="round" stroke-linejoin="round" stroke-dasharray="500" stroke-dashoffset="500" pathLength="500" d="m-3.1966 2.5573q-166.5795 -3.972 -63.9301 3.5161q-35.8535 29.0197 -38.7219 31.0474q-2.8684 2.0277 -32.2518 0.3449q-4.1963 -6.1344 1.0231 -5.7825q-10.1122 9.9894 30.8838 5.7825q90.3721 -78.4141 127.93 -73.5862l-93.781 75.3109q66.2474 -1.9371 61.4963 -32.1581q-7.3492 5.6 0.6392 11.1878l-13.0329 20.3757q16.5015 -26.0077 25.819 -30.2849q8.1758 -0.6885 -2.8501 16.8827q-0.2731 4.8921 8.8052 0.9673q7.3422 -15.3192 34.0304 -17.2595q-39.5793 3.8538 -31.7714 28.6679q15.1053 4.2816 34.2489 -28.6679q-16.4258 24.802 -12.7464 29.3108q7.0289 2.2602 36.3891 -30.5072l-14.695 30.7535q17.4219 -31.6625 29.3901 -28.9356q12.6269 0.1158 -4.6209 24.5431q-2.0592 3.507 4.4693 4.6955l47.8504 -27.2541q-32.3978 -12.2831 -32.3978 21.8002q12.9662 19.1085 43.398 -25.9099q-13.9627 19.18 -13.1043 24.8528q7.3073 20.7258 34.8652 -25.2125l-16.4102 31.4039q19.3404 3.3025 38.2364 -30.6311l-4.3815 2.6442q15.05 30.6045 -14.6855 26.9153q-11.4904 -4.8975 7.1321 -16.6643q-23.7532 15.2867 -1.0598 18.3312l39.6551 -0.8816q27.5001 -46.5366 10.9651 -20.7807c-16.535 25.756 2.9781 31.2296 19.074 1.8245q16.0959 -29.4052 -11.2442 18.9765q6.7245 4.1557 40.8778 -29.7196q-0.8342 -3.6901 -5.0427 2.8968q11.1829 28.9311 -7.442 27.8173q-19.8959 -6.2805 -2.4121 -18.0649q-13.1281 23.3542 9.3465 16.7119q12.4332 -2.9732 25.9329 -28.9075q-15.3091 24.6444 -14.2745 29.1402q17.2586 8.2414 31.0168 -30.0589q-16.2508 25.4993 -11.8316 30.6699q45.0271 4.6777 52.4474 -30.0526c-37.9864 2.3937 -35.2351 30.1531 -31.1797 28.9818c-3.5044 -3.0669 13.9318 14.1752 32.4602 -28.9818l-17.0748 29.7252q22.0736 3.8232 54.1645 -56.7247q-39.973 51.7347 -27.5123 56.7082q12.7234 4.1151 34.5562 -30.6457q-22.0991 19.5184 -15.5901 31.1478q17.2531 -3.4927 35.4991 -31.3402l-1.6477 5.861q16.3779 30.2835 -12.7599 25.1821q-11.0031 -7.7419 0.2085 -14.2289l-17.6387 17.0843q-194.5191 25.6562 138.9392 13.0157q110.0771 -14.6436 -213.7728 -4.0941q-453.2787 31.4624 -503.6859 3.8246q412.0694 4.3814 716.7526 35.0751q35.6453 -38.416 -661.9606 12.1701q104.599 -47.9196 552.2671 15.2487q-21.352 -47.9238 -431.3721 15.9301q-9.7695 1.5214 -9.951 -10.5691c-0.0827 -5.5099 1.8258 -13.8467 1.8258 -13.8467c0 0 200.2459 22.1801 200.2459 22.1801" transform="translate(223.1531 46.8127)" style="animation-name: eaf-11a51-2;"></path></g></g></g></svg>